# xmcd
#
# Track frame offsets: 
#        150
#        17448
#        50975
#        70496
#        79702
#        99258
#        115240
#        133437
#        146394
#        167225
#        185634
#        204274
#        225410
#        241274
#        258732
#        278870
#        298546
#        314361
#        332909
#
# Disc length: 4688 seconds
#
# Revision: 0
# Processed by: cddbd v1.5.2PL0 Copyright (c) Steve Scherf et al.
# Submitted via: ExactAudioCopy v1.1
#
DISCID=1e124e13
DTITLE=Various Artist - Het Allerbeste Uit Radio 1 Classics 1000 Van 2017 - C
DTITLE=D 4
DYEAR=2017
DGENRE=Easy Listening
TTITLE0=Abba - Dancing Queen
TTITLE1=Peter Gabriel - Biko
TTITLE2=Oasis - Wonderwall
TTITLE3=Tim Hardin - How Can We Hang On To A Dream
TTITLE4=Toto - Africa
TTITLE5=Aretha Franklin - I Say A Little Prayer
TTITLE6=The Triffids - Bury Me Deep In Love
TTITLE7=J.J. Cale - Cocaine
TTITLE8=David Sylvian and Ryuichi Sakamoto - Forbidden Colours
TTITLE9=Jonathan Richman and The Modern Lovers - Road Runner
TTITLE10=Marianne Faithfull - The Ballad Of Lucy Jordan
TTITLE11=Peter Sarstedt - Where Do You Go To (My Lovely)
TTITLE12=The Band - The Night They Drove Old Dixie Down
TTITLE13=Stromae - Papaoutai
TTITLE14=The Blue Nile - Tinseltown In The Rain
TTITLE15=Jane Birkin and Serge Gainsbourg - Je T'Aime... Moi Non Plus
TTITLE16=Joan Armatrading - The Weakness In Me
TTITLE17=Cockney Rebel - Sebastian
TTITLE18=Deep Purple - Child In Time
EXTD=
EXTT0=
EXTT1=
EXTT2=
EXTT3=
EXTT4=
EXTT5=
EXTT6=
EXTT7=
EXTT8=
EXTT9=
EXTT10=
EXTT11=
EXTT12=
EXTT13=
EXTT14=
EXTT15=
EXTT16=
EXTT17=
EXTT18=
PLAYORDER=
